<?xml version="1.0" encoding="utf-8"?>
<!-- Svg Vector Icons : http://www.onlinewebfonts.com/icon -->
<!DOCTYPE svg PUBLIC "-//W3C//DTD SVG 1.1//EN" "http://www.w3.org/Graphics/SVG/1.1/DTD/svg11.dtd">
<svg version="1.1" xmlns="http://www.w3.org/2000/svg" xmlns:xlink="http://www.w3.org/1999/xlink" x="0px" y="0px" viewBox="0 0 1000 1000" enable-background="new 0 0 1000 1000" xml:space="preserve">
<metadata> Svg Vector Icons : http://www.onlinewebfonts.com/icon </metadata>
<g><path d="M867.4,117.6c-67.7,0-122.6,54.9-122.6,122.6c0,35.5,15.1,67.5,39.2,89.9l-147.9,308c-4.6-0.5-9.2-0.8-13.9-0.8c-11.7,0-23.1,1.6-33.8,4.7L472.8,474.1c17.2-21.1,27.5-48,27.5-77.4c0-67.7-54.9-122.6-122.6-122.6c-67.7,0-122.6,54.9-122.6,122.6c0,23.5,6.6,45.4,18.1,64.1l-95.3,113.7c-14-5.6-29.3-8.6-45.3-8.6C64.9,565.8,10,620.7,10,688.4S64.9,811,132.6,811s122.6-54.9,122.6-122.6c0-23.9-6.8-46.1-18.6-65l98.9-111.6c13.2,4.9,27.5,7.5,42.3,7.5c11.1,0,21.8-1.5,32.1-4.2l117.1,167.7c-17,21.1-27.2,47.9-27.2,77c0,67.7,54.9,122.6,122.6,122.6c67.7,0,122.6-54.9,122.6-122.6c0-35.5-15.1-67.5-39.2-89.9l148.2-308c4.5,0.5,9,0.7,13.6,0.7c67.7,0,122.6-54.9,122.6-122.6C990,172.5,935.1,117.6,867.4,117.6z M132.6,743.9c-30.6,0-55.5-24.8-55.5-55.5s24.8-55.5,55.5-55.5c30.6,0,55.5,24.8,55.5,55.5S163.2,743.9,132.6,743.9z M322.3,396.7c0-30.6,24.8-55.5,55.5-55.5c30.6,0,55.5,24.8,55.5,55.5c0,30.6-24.8,55.5-55.5,55.5C347.1,452.2,322.3,427.4,322.3,396.7z M622.3,815.3c-30.6,0-55.5-24.8-55.5-55.5c0-30.6,24.8-55.5,55.5-55.5c30.6,0,55.5,24.8,55.5,55.5C677.7,790.5,652.9,815.3,622.3,815.3z M867.4,295.6c-30.6,0-55.5-24.8-55.5-55.5c0-30.6,24.8-55.5,55.5-55.5s55.5,24.8,55.5,55.5C922.9,270.8,898.1,295.6,867.4,295.6z"/></g>
</svg>